# xmcd
# Copyright (c) 1998 CDDB Inc.
#
# Track frame offsets:
#	150
#	14866
#	29582
#	44298
#	59014
#
# Disc length: 983 seconds
#
# Revision: 0
# Processed by: cddbd v1.5.2PL0 Copyright (c) Steve Scherf et al.
# Submitted via: audiograbber 1.70
#
DISCID=4703d505
DTITLE=Alcia Keys - Songs in a minor
DYEAR=1900
DGENRE=
TTITLE0=Fallin'
TTITLE1=Fallin'
TTITLE2=Fallin'
TTITLE3=Fallin'
TTITLE4=Fallin'
EXTD=Fallin'
EXTT0=
EXTT1=
EXTT2=
EXTT3=
EXTT4=
PLAYORDER=
